<mxfile host="app.diagrams.net" modified="2024-06-03T08:46:02.869Z" agent="Mozilla/5.0 (Windows NT 10.0; Win64; x64) AppleWebKit/537.36 (KHTML, like Gecko) Chrome/125.0.0.0 Safari/537.36" etag="whSku48zaT90sTYZGs3n" version="24.4.13" type="device">
  <diagram name="Page-1" id="xhuq1YfUVA5zxXozsdtk">
    <mxGraphModel dx="1434" dy="1846" grid="1" gridSize="10" guides="1" tooltips="1" connect="1" arrows="1" fold="1" page="1" pageScale="1" pageWidth="850" pageHeight="1100" math="0" shadow="0">
      <root>
        <mxCell id="0" />
        <mxCell id="1" parent="0" />
        <mxCell id="L2kIxF_f2o8bScoLyBiG-1" value="Actor" style="shape=umlActor;verticalLabelPosition=bottom;verticalAlign=top;html=1;outlineConnect=0;noLabel=1;fillColor=#fff2cc;strokeColor=#d6b656;" parent="1" vertex="1">
          <mxGeometry x="110" y="-130" width="30" height="60" as="geometry" />
        </mxCell>
        <mxCell id="L2kIxF_f2o8bScoLyBiG-2" value="Actor" style="shape=umlActor;verticalLabelPosition=bottom;verticalAlign=top;html=1;outlineConnect=0;noLabel=1;fillColor=#d5e8d4;strokeColor=#82b366;" parent="1" vertex="1">
          <mxGeometry x="110" y="380" width="30" height="60" as="geometry" />
        </mxCell>
        <mxCell id="L2kIxF_f2o8bScoLyBiG-3" value="Owner" style="text;html=1;align=center;verticalAlign=middle;whiteSpace=wrap;rounded=0;fillColor=#fff2cc;strokeColor=#d6b656;" parent="1" vertex="1">
          <mxGeometry x="95" y="-70" width="60" height="30" as="geometry" />
        </mxCell>
        <mxCell id="L2kIxF_f2o8bScoLyBiG-4" value="Guest" style="text;html=1;align=center;verticalAlign=middle;whiteSpace=wrap;rounded=0;fillColor=#d5e8d4;strokeColor=#82b366;" parent="1" vertex="1">
          <mxGeometry x="95" y="440" width="60" height="30" as="geometry" />
        </mxCell>
        <mxCell id="L2kIxF_f2o8bScoLyBiG-5" value="" style="rounded=0;whiteSpace=wrap;html=1;" parent="1" vertex="1">
          <mxGeometry x="310" y="-170" width="820" height="760" as="geometry" />
        </mxCell>
        <mxCell id="L2kIxF_f2o8bScoLyBiG-6" value="FORUM" style="text;html=1;align=center;verticalAlign=middle;whiteSpace=wrap;rounded=0;" parent="1" vertex="1">
          <mxGeometry x="310" y="-170" width="60" height="30" as="geometry" />
        </mxCell>
        <mxCell id="L2kIxF_f2o8bScoLyBiG-8" value="Otvarnaje foruma" style="ellipse;whiteSpace=wrap;html=1;fillColor=#d5e8d4;strokeColor=#82b366;" parent="1" vertex="1">
          <mxGeometry x="400" y="410" width="140" height="70" as="geometry" />
        </mxCell>
        <mxCell id="L2kIxF_f2o8bScoLyBiG-9" value="" style="endArrow=none;html=1;rounded=0;exitX=0;exitY=0.5;exitDx=0;exitDy=0;entryX=1;entryY=0.5;entryDx=0;entryDy=0;" parent="1" source="L2kIxF_f2o8bScoLyBiG-8" target="L2kIxF_f2o8bScoLyBiG-4" edge="1">
          <mxGeometry width="50" height="50" relative="1" as="geometry">
            <mxPoint x="350" y="410" as="sourcePoint" />
            <mxPoint x="150" y="470" as="targetPoint" />
          </mxGeometry>
        </mxCell>
        <mxCell id="L2kIxF_f2o8bScoLyBiG-12" value="" style="endArrow=none;dashed=1;html=1;dashPattern=1 3;strokeWidth=2;rounded=0;exitX=1;exitY=0.5;exitDx=0;exitDy=0;entryX=0;entryY=0.5;entryDx=0;entryDy=0;" parent="1" source="L2kIxF_f2o8bScoLyBiG-8" target="L2kIxF_f2o8bScoLyBiG-13" edge="1">
          <mxGeometry width="50" height="50" relative="1" as="geometry">
            <mxPoint x="400" y="410" as="sourcePoint" />
            <mxPoint x="450" y="360" as="targetPoint" />
          </mxGeometry>
        </mxCell>
        <mxCell id="L2kIxF_f2o8bScoLyBiG-13" value="Izbor lokacije i ostavljanje prvog komentara" style="ellipse;whiteSpace=wrap;html=1;fillColor=#d5e8d4;strokeColor=#82b366;" parent="1" vertex="1">
          <mxGeometry x="700" y="410" width="140" height="70" as="geometry" />
        </mxCell>
        <mxCell id="L2kIxF_f2o8bScoLyBiG-15" value="&amp;lt;&amp;lt;include&amp;gt;&amp;gt;" style="text;html=1;align=center;verticalAlign=middle;whiteSpace=wrap;rounded=0;" parent="1" vertex="1">
          <mxGeometry x="600" y="420" width="60" height="30" as="geometry" />
        </mxCell>
        <mxCell id="L2kIxF_f2o8bScoLyBiG-16" value="" style="endArrow=none;html=1;rounded=0;exitX=1;exitY=1;exitDx=0;exitDy=0;entryX=0;entryY=0.5;entryDx=0;entryDy=0;" parent="1" source="L2kIxF_f2o8bScoLyBiG-4" target="L2kIxF_f2o8bScoLyBiG-17" edge="1">
          <mxGeometry width="50" height="50" relative="1" as="geometry">
            <mxPoint x="400" y="410" as="sourcePoint" />
            <mxPoint x="360" y="390" as="targetPoint" />
          </mxGeometry>
        </mxCell>
        <mxCell id="L2kIxF_f2o8bScoLyBiG-17" value="Zatvaranje foruma" style="ellipse;whiteSpace=wrap;html=1;fillColor=#d5e8d4;strokeColor=#82b366;" parent="1" vertex="1">
          <mxGeometry x="400" y="500" width="140" height="70" as="geometry" />
        </mxCell>
        <mxCell id="L2kIxF_f2o8bScoLyBiG-19" value="Ostavljanje komentara" style="ellipse;whiteSpace=wrap;html=1;fillColor=#f8cecc;strokeColor=#b85450;" parent="1" vertex="1">
          <mxGeometry x="410" y="170" width="140" height="70" as="geometry" />
        </mxCell>
        <mxCell id="L2kIxF_f2o8bScoLyBiG-21" value="Ostavljanje posebno oznacenog komentara" style="ellipse;whiteSpace=wrap;html=1;fillColor=#f8cecc;strokeColor=#b85450;" parent="1" vertex="1">
          <mxGeometry x="700" y="170" width="140" height="70" as="geometry" />
        </mxCell>
        <mxCell id="L2kIxF_f2o8bScoLyBiG-22" value="&amp;lt;&amp;lt;extend&amp;gt;&amp;gt;" style="text;html=1;align=center;verticalAlign=middle;whiteSpace=wrap;rounded=0;" parent="1" vertex="1">
          <mxGeometry x="600" y="180" width="60" height="30" as="geometry" />
        </mxCell>
        <mxCell id="L2kIxF_f2o8bScoLyBiG-23" value="" style="endArrow=none;dashed=1;html=1;dashPattern=1 3;strokeWidth=2;rounded=0;entryX=0;entryY=0.5;entryDx=0;entryDy=0;exitX=1;exitY=0.5;exitDx=0;exitDy=0;" parent="1" source="L2kIxF_f2o8bScoLyBiG-19" target="L2kIxF_f2o8bScoLyBiG-21" edge="1">
          <mxGeometry width="50" height="50" relative="1" as="geometry">
            <mxPoint x="510" y="544.5" as="sourcePoint" />
            <mxPoint x="600" y="544.5" as="targetPoint" />
          </mxGeometry>
        </mxCell>
        <mxCell id="L2kIxF_f2o8bScoLyBiG-27" value="User" style="shape=umlActor;verticalLabelPosition=bottom;verticalAlign=top;html=1;outlineConnect=0;fillColor=#f8cecc;strokeColor=#b85450;fontColor=none;noLabel=1;" parent="1" vertex="1">
          <mxGeometry x="110" y="130" width="30" height="60" as="geometry" />
        </mxCell>
        <mxCell id="L2kIxF_f2o8bScoLyBiG-31" value="User" style="text;html=1;align=center;verticalAlign=middle;whiteSpace=wrap;rounded=0;fillColor=#f8cecc;strokeColor=#b85450;" parent="1" vertex="1">
          <mxGeometry x="95" y="190" width="60" height="30" as="geometry" />
        </mxCell>
        <mxCell id="L2kIxF_f2o8bScoLyBiG-32" value="" style="endArrow=none;html=1;rounded=0;exitX=0;exitY=0.5;exitDx=0;exitDy=0;entryX=1;entryY=0.5;entryDx=0;entryDy=0;" parent="1" source="L2kIxF_f2o8bScoLyBiG-19" target="L2kIxF_f2o8bScoLyBiG-31" edge="1">
          <mxGeometry width="50" height="50" relative="1" as="geometry">
            <mxPoint x="395" y="209" as="sourcePoint" />
            <mxPoint x="180" y="209" as="targetPoint" />
          </mxGeometry>
        </mxCell>
        <mxCell id="L2kIxF_f2o8bScoLyBiG-34" value="" style="endArrow=classic;html=1;rounded=0;exitX=0.5;exitY=0;exitDx=0;exitDy=0;exitPerimeter=0;entryX=0.5;entryY=1;entryDx=0;entryDy=0;fillColor=#d5e8d4;strokeColor=#82b366;" parent="1" source="L2kIxF_f2o8bScoLyBiG-2" target="L2kIxF_f2o8bScoLyBiG-31" edge="1">
          <mxGeometry width="50" height="50" relative="1" as="geometry">
            <mxPoint x="120" y="330" as="sourcePoint" />
            <mxPoint x="170" y="280" as="targetPoint" />
          </mxGeometry>
        </mxCell>
        <mxCell id="L2kIxF_f2o8bScoLyBiG-35" value="" style="endArrow=classic;html=1;rounded=0;exitX=0.5;exitY=1;exitDx=0;exitDy=0;entryX=0.5;entryY=0;entryDx=0;entryDy=0;entryPerimeter=0;fillColor=#fff2cc;strokeColor=#d6b656;" parent="1" source="L2kIxF_f2o8bScoLyBiG-3" target="L2kIxF_f2o8bScoLyBiG-27" edge="1">
          <mxGeometry width="50" height="50" relative="1" as="geometry">
            <mxPoint x="40" y="120" as="sourcePoint" />
            <mxPoint x="90" y="70" as="targetPoint" />
          </mxGeometry>
        </mxCell>
        <mxCell id="L2kIxF_f2o8bScoLyBiG-36" value="Actor" style="shape=umlActor;verticalLabelPosition=bottom;verticalAlign=top;html=1;outlineConnect=0;fillColor=#e1d5e7;strokeColor=#9673a6;" parent="1" vertex="1">
          <mxGeometry x="1310" y="130" width="30" height="60" as="geometry" />
        </mxCell>
        <mxCell id="L2kIxF_f2o8bScoLyBiG-38" value="Sistem" style="text;html=1;align=center;verticalAlign=middle;whiteSpace=wrap;rounded=0;fillColor=#e1d5e7;strokeColor=#9673a6;" parent="1" vertex="1">
          <mxGeometry x="1295" y="190" width="60" height="30" as="geometry" />
        </mxCell>
        <mxCell id="L2kIxF_f2o8bScoLyBiG-39" value="" style="endArrow=none;html=1;rounded=0;entryX=0;entryY=0.5;entryDx=0;entryDy=0;exitX=1;exitY=0.5;exitDx=0;exitDy=0;" parent="1" source="L2kIxF_f2o8bScoLyBiG-40" target="L2kIxF_f2o8bScoLyBiG-38" edge="1">
          <mxGeometry width="50" height="50" relative="1" as="geometry">
            <mxPoint x="700" y="210" as="sourcePoint" />
            <mxPoint x="750" y="160" as="targetPoint" />
          </mxGeometry>
        </mxCell>
        <mxCell id="L2kIxF_f2o8bScoLyBiG-40" value="Slanje obavestenja vlasniku o novom forumu" style="ellipse;whiteSpace=wrap;html=1;fillColor=#e1d5e7;strokeColor=#9673a6;" parent="1" vertex="1">
          <mxGeometry x="950" y="170" width="140" height="70" as="geometry" />
        </mxCell>
        <mxCell id="L2kIxF_f2o8bScoLyBiG-41" value="" style="endArrow=none;html=1;rounded=0;exitX=1;exitY=0.5;exitDx=0;exitDy=0;entryX=0;entryY=0.5;entryDx=0;entryDy=0;" parent="1" source="L2kIxF_f2o8bScoLyBiG-3" target="L2kIxF_f2o8bScoLyBiG-42" edge="1">
          <mxGeometry width="50" height="50" relative="1" as="geometry">
            <mxPoint x="700" y="110" as="sourcePoint" />
            <mxPoint x="750" y="60" as="targetPoint" />
          </mxGeometry>
        </mxCell>
        <mxCell id="L2kIxF_f2o8bScoLyBiG-42" value="Prijavljivanje komentara" style="ellipse;whiteSpace=wrap;html=1;fillColor=#fff2cc;strokeColor=#d6b656;" parent="1" vertex="1">
          <mxGeometry x="400" y="-90" width="140" height="70" as="geometry" />
        </mxCell>
        <mxCell id="L2kIxF_f2o8bScoLyBiG-43" value="" style="rounded=0;whiteSpace=wrap;html=1;" parent="1" vertex="1">
          <mxGeometry x="310" y="-600" width="820" height="400" as="geometry" />
        </mxCell>
        <mxCell id="L2kIxF_f2o8bScoLyBiG-44" value="" style="endArrow=none;html=1;rounded=0;exitX=0.5;exitY=0;exitDx=0;exitDy=0;exitPerimeter=0;edgeStyle=orthogonalEdgeStyle;" parent="1" source="L2kIxF_f2o8bScoLyBiG-36" edge="1">
          <mxGeometry width="50" height="50" relative="1" as="geometry">
            <mxPoint x="740" y="-70" as="sourcePoint" />
            <mxPoint x="1330" y="-310" as="targetPoint" />
          </mxGeometry>
        </mxCell>
        <mxCell id="L2kIxF_f2o8bScoLyBiG-45" value="" style="endArrow=none;html=1;rounded=0;entryX=1;entryY=0.5;entryDx=0;entryDy=0;edgeStyle=orthogonalEdgeStyle;" parent="1" target="L2kIxF_f2o8bScoLyBiG-47" edge="1">
          <mxGeometry width="50" height="50" relative="1" as="geometry">
            <mxPoint x="1330" y="-310" as="sourcePoint" />
            <mxPoint x="1335" y="-450" as="targetPoint" />
          </mxGeometry>
        </mxCell>
        <mxCell id="L2kIxF_f2o8bScoLyBiG-47" value="Slanje predloga za registraciju novog smestaja&amp;nbsp;" style="ellipse;whiteSpace=wrap;html=1;fillColor=#e1d5e7;strokeColor=#9673a6;" parent="1" vertex="1">
          <mxGeometry x="910" y="-440" width="150" height="90" as="geometry" />
        </mxCell>
        <mxCell id="L2kIxF_f2o8bScoLyBiG-51" value="INBOX" style="text;html=1;align=center;verticalAlign=middle;whiteSpace=wrap;rounded=0;" parent="1" vertex="1">
          <mxGeometry x="310" y="-600" width="60" height="30" as="geometry" />
        </mxCell>
        <mxCell id="L2kIxF_f2o8bScoLyBiG-53" value="" style="rounded=0;whiteSpace=wrap;html=1;" parent="1" vertex="1">
          <mxGeometry x="310" y="630" width="820" height="400" as="geometry" />
        </mxCell>
        <mxCell id="L2kIxF_f2o8bScoLyBiG-54" value="INBOX" style="text;html=1;align=center;verticalAlign=middle;whiteSpace=wrap;rounded=0;" parent="1" vertex="1">
          <mxGeometry x="310" y="630" width="60" height="30" as="geometry" />
        </mxCell>
        <mxCell id="L2kIxF_f2o8bScoLyBiG-55" value="" style="endArrow=none;html=1;rounded=0;entryX=0.5;entryY=1;entryDx=0;entryDy=0;edgeStyle=orthogonalEdgeStyle;" parent="1" target="L2kIxF_f2o8bScoLyBiG-4" edge="1">
          <mxGeometry width="50" height="50" relative="1" as="geometry">
            <mxPoint x="120" y="770" as="sourcePoint" />
            <mxPoint x="670" y="620" as="targetPoint" />
          </mxGeometry>
        </mxCell>
        <mxCell id="L2kIxF_f2o8bScoLyBiG-56" value="" style="endArrow=none;html=1;rounded=0;entryX=0;entryY=0.5;entryDx=0;entryDy=0;edgeStyle=orthogonalEdgeStyle;" parent="1" target="L2kIxF_f2o8bScoLyBiG-57" edge="1">
          <mxGeometry width="50" height="50" relative="1" as="geometry">
            <mxPoint x="120" y="770" as="sourcePoint" />
            <mxPoint x="670" y="620" as="targetPoint" />
          </mxGeometry>
        </mxCell>
        <mxCell id="L2kIxF_f2o8bScoLyBiG-57" value="Pretraga smestaja" style="ellipse;whiteSpace=wrap;html=1;fillColor=#d5e8d4;strokeColor=#82b366;" parent="1" vertex="1">
          <mxGeometry x="380" y="740" width="140" height="70" as="geometry" />
        </mxCell>
        <mxCell id="L2kIxF_f2o8bScoLyBiG-59" value="" style="endArrow=none;dashed=1;html=1;dashPattern=1 3;strokeWidth=2;rounded=0;exitX=1;exitY=0.5;exitDx=0;exitDy=0;entryX=0;entryY=0.5;entryDx=0;entryDy=0;" parent="1" source="L2kIxF_f2o8bScoLyBiG-57" target="L2kIxF_f2o8bScoLyBiG-60" edge="1">
          <mxGeometry width="50" height="50" relative="1" as="geometry">
            <mxPoint x="520" y="775" as="sourcePoint" />
            <mxPoint x="430" y="690" as="targetPoint" />
          </mxGeometry>
        </mxCell>
        <mxCell id="L2kIxF_f2o8bScoLyBiG-60" value="Pretraga smestaja sa datumom" style="ellipse;whiteSpace=wrap;html=1;fillColor=#d5e8d4;strokeColor=#82b366;" parent="1" vertex="1">
          <mxGeometry x="650" y="740" width="140" height="70" as="geometry" />
        </mxCell>
        <mxCell id="L2kIxF_f2o8bScoLyBiG-61" value="&amp;lt;&amp;lt;extend&amp;gt;&amp;gt;" style="text;html=1;align=center;verticalAlign=middle;whiteSpace=wrap;rounded=0;" parent="1" vertex="1">
          <mxGeometry x="560" y="750" width="60" height="30" as="geometry" />
        </mxCell>
        <mxCell id="L2kIxF_f2o8bScoLyBiG-62" value="" style="endArrow=none;html=1;rounded=0;entryX=0.5;entryY=1;entryDx=0;entryDy=0;edgeStyle=orthogonalEdgeStyle;" parent="1" target="L2kIxF_f2o8bScoLyBiG-38" edge="1">
          <mxGeometry width="50" height="50" relative="1" as="geometry">
            <mxPoint x="1320" y="761.1764705882352" as="sourcePoint" />
            <mxPoint x="670" y="390" as="targetPoint" />
          </mxGeometry>
        </mxCell>
        <mxCell id="L2kIxF_f2o8bScoLyBiG-63" value="Prikaz rezultata pretrage" style="ellipse;whiteSpace=wrap;html=1;fillColor=#e1d5e7;strokeColor=#9673a6;" parent="1" vertex="1">
          <mxGeometry x="910" y="740" width="140" height="70" as="geometry" />
        </mxCell>
        <mxCell id="L2kIxF_f2o8bScoLyBiG-64" value="" style="endArrow=none;html=1;rounded=0;exitX=1;exitY=0.5;exitDx=0;exitDy=0;edgeStyle=orthogonalEdgeStyle;" parent="1" source="L2kIxF_f2o8bScoLyBiG-63" edge="1">
          <mxGeometry width="50" height="50" relative="1" as="geometry">
            <mxPoint x="620" y="590" as="sourcePoint" />
            <mxPoint x="1320" y="760" as="targetPoint" />
          </mxGeometry>
        </mxCell>
        <mxCell id="L2kIxF_f2o8bScoLyBiG-65" value="Ostavljanje komentara" style="ellipse;whiteSpace=wrap;html=1;fillColor=#f8cecc;strokeColor=#b85450;" parent="1" vertex="1">
          <mxGeometry x="40" y="1130" width="140" height="70" as="geometry" />
        </mxCell>
        <mxCell id="L2kIxF_f2o8bScoLyBiG-66" value="" style="swimlane;startSize=0;" parent="1" vertex="1">
          <mxGeometry x="200" y="1130" width="315" height="350" as="geometry" />
        </mxCell>
        <mxCell id="L2kIxF_f2o8bScoLyBiG-69" value="&lt;b&gt;Preduslovi:&lt;/b&gt; Korisnik je prijavljen kao gost ili kao vlasnik." style="text;html=1;align=center;verticalAlign=middle;resizable=0;points=[];autosize=1;strokeColor=none;fillColor=none;" parent="L2kIxF_f2o8bScoLyBiG-66" vertex="1">
          <mxGeometry x="-5" y="18" width="320" height="30" as="geometry" />
        </mxCell>
        <mxCell id="L2kIxF_f2o8bScoLyBiG-68" value="" style="endArrow=none;html=1;rounded=0;exitX=0;exitY=0.25;exitDx=0;exitDy=0;entryX=1;entryY=0.25;entryDx=0;entryDy=0;" parent="L2kIxF_f2o8bScoLyBiG-66" edge="1">
          <mxGeometry width="50" height="50" relative="1" as="geometry">
            <mxPoint y="60" as="sourcePoint" />
            <mxPoint x="310" y="60" as="targetPoint" />
          </mxGeometry>
        </mxCell>
        <mxCell id="L2kIxF_f2o8bScoLyBiG-70" value="" style="endArrow=none;html=1;rounded=0;exitX=0;exitY=0.25;exitDx=0;exitDy=0;entryX=1;entryY=0.25;entryDx=0;entryDy=0;" parent="L2kIxF_f2o8bScoLyBiG-66" edge="1">
          <mxGeometry width="50" height="50" relative="1" as="geometry">
            <mxPoint y="110" as="sourcePoint" />
            <mxPoint x="310" y="110" as="targetPoint" />
          </mxGeometry>
        </mxCell>
        <mxCell id="L2kIxF_f2o8bScoLyBiG-71" value="&lt;b&gt;Posledice: &lt;/b&gt;Postavljen oznacen ili neoznacen komentar" style="text;html=1;align=center;verticalAlign=middle;resizable=0;points=[];autosize=1;strokeColor=none;fillColor=none;" parent="L2kIxF_f2o8bScoLyBiG-66" vertex="1">
          <mxGeometry x="-5" y="70" width="320" height="30" as="geometry" />
        </mxCell>
        <mxCell id="L2kIxF_f2o8bScoLyBiG-72" value="&lt;b&gt;Osnovni tok:&lt;/b&gt;&lt;div&gt;&lt;b&gt;&amp;nbsp;&lt;/b&gt;&lt;div&gt;1. Prijavljeni korsnik ulazi na stranicu sa forumima&lt;/div&gt;&lt;div&gt;&lt;br&gt;&lt;/div&gt;&lt;div style=&quot;text-align: left;&quot;&gt;2. Prijavljeni korsnik bira forum na kom zeli da&lt;/div&gt;&lt;div style=&quot;text-align: left;&quot;&gt;&amp;nbsp;ostavi komentar i klikom ulazi u njega&lt;/div&gt;&lt;/div&gt;&lt;div style=&quot;text-align: left;&quot;&gt;&lt;br&gt;&lt;/div&gt;&lt;div style=&quot;text-align: left;&quot;&gt;3. Prijavljeni korsnik pise komentar i postavlja ga&lt;/div&gt;&lt;div style=&quot;text-align: left;&quot;&gt;&lt;br&gt;&lt;/div&gt;&lt;div style=&quot;text-align: left;&quot;&gt;4. [Alternatvini tok A]&lt;/div&gt;&lt;div style=&quot;text-align: left;&quot;&gt;&lt;br&gt;&lt;/div&gt;&lt;div style=&quot;text-align: left;&quot;&gt;5. Komentar biva postavljen na forum&lt;/div&gt;&lt;div style=&quot;text-align: left;&quot;&gt;&lt;br&gt;&lt;/div&gt;&lt;div style=&quot;text-align: left;&quot;&gt;6. [Alternativni tok B]&lt;/div&gt;&lt;div style=&quot;text-align: left;&quot;&gt;&lt;br&gt;&lt;/div&gt;" style="text;html=1;align=center;verticalAlign=middle;resizable=0;points=[];autosize=1;strokeColor=none;fillColor=none;" parent="L2kIxF_f2o8bScoLyBiG-66" vertex="1">
          <mxGeometry x="12.5" y="120" width="290" height="230" as="geometry" />
        </mxCell>
        <mxCell id="L2kIxF_f2o8bScoLyBiG-73" value="" style="rounded=0;whiteSpace=wrap;html=1;" parent="1" vertex="1">
          <mxGeometry x="530" y="1130" width="270" height="130" as="geometry" />
        </mxCell>
        <mxCell id="L2kIxF_f2o8bScoLyBiG-74" value="&lt;b&gt;Alternativni tok A:&amp;nbsp;&lt;/b&gt;&lt;div&gt;&lt;br&gt;&lt;/div&gt;&lt;div&gt;1. Vlasnik ima apartman na lokaciji datog Foruma ili gost ima rezervaciju na lokaciji datog Foruma&amp;nbsp;&lt;/div&gt;&lt;div&gt;&lt;br&gt;&lt;/div&gt;&lt;div&gt;2. Komentar biva oznacen kao &quot;Bitan&quot;&lt;/div&gt;" style="text;html=1;align=left;verticalAlign=middle;whiteSpace=wrap;rounded=0;" parent="1" vertex="1">
          <mxGeometry x="540" y="1130" width="250" height="120" as="geometry" />
        </mxCell>
        <mxCell id="L2kIxF_f2o8bScoLyBiG-76" value="" style="rounded=0;whiteSpace=wrap;html=1;" parent="1" vertex="1">
          <mxGeometry x="530" y="1280" width="270" height="130" as="geometry" />
        </mxCell>
        <mxCell id="L2kIxF_f2o8bScoLyBiG-77" value="&lt;b&gt;Alternativni tok B:&amp;nbsp;&lt;/b&gt;&lt;div&gt;&lt;br&gt;&lt;/div&gt;&lt;div&gt;1. Postavljeni komentar je 20. &quot;Bitni&quot; komentar&lt;/div&gt;&lt;div&gt;na forumu od strane gosta ili 10. &quot;Bitni komentar od strane Vlasnika&lt;/div&gt;&lt;div&gt;&lt;br&gt;&lt;/div&gt;&lt;div&gt;2. Forum biva oznacen kao &quot;Bitan&quot;&lt;/div&gt;" style="text;html=1;align=left;verticalAlign=middle;whiteSpace=wrap;rounded=0;" parent="1" vertex="1">
          <mxGeometry x="540" y="1280" width="250" height="120" as="geometry" />
        </mxCell>
        <mxCell id="L2kIxF_f2o8bScoLyBiG-78" value="Otvarnaje foruma" style="ellipse;whiteSpace=wrap;html=1;fillColor=#d5e8d4;strokeColor=#82b366;" parent="1" vertex="1">
          <mxGeometry x="850" y="1120" width="140" height="70" as="geometry" />
        </mxCell>
        <mxCell id="L2kIxF_f2o8bScoLyBiG-79" value="" style="swimlane;startSize=0;" parent="1" vertex="1">
          <mxGeometry x="1010" y="1130" width="315" height="320" as="geometry" />
        </mxCell>
        <mxCell id="L2kIxF_f2o8bScoLyBiG-80" value="&lt;b&gt;Preduslovi:&lt;/b&gt; Korisnik je prijavljen kao gost." style="text;html=1;align=center;verticalAlign=middle;resizable=0;points=[];autosize=1;strokeColor=none;fillColor=none;" parent="L2kIxF_f2o8bScoLyBiG-79" vertex="1">
          <mxGeometry y="18" width="250" height="30" as="geometry" />
        </mxCell>
        <mxCell id="L2kIxF_f2o8bScoLyBiG-81" value="" style="endArrow=none;html=1;rounded=0;exitX=0;exitY=0.25;exitDx=0;exitDy=0;entryX=1;entryY=0.25;entryDx=0;entryDy=0;" parent="L2kIxF_f2o8bScoLyBiG-79" edge="1">
          <mxGeometry width="50" height="50" relative="1" as="geometry">
            <mxPoint y="60" as="sourcePoint" />
            <mxPoint x="310" y="60" as="targetPoint" />
          </mxGeometry>
        </mxCell>
        <mxCell id="L2kIxF_f2o8bScoLyBiG-82" value="" style="endArrow=none;html=1;rounded=0;exitX=0;exitY=0.25;exitDx=0;exitDy=0;entryX=1;entryY=0.25;entryDx=0;entryDy=0;" parent="L2kIxF_f2o8bScoLyBiG-79" edge="1">
          <mxGeometry width="50" height="50" relative="1" as="geometry">
            <mxPoint y="110" as="sourcePoint" />
            <mxPoint x="310" y="110" as="targetPoint" />
          </mxGeometry>
        </mxCell>
        <mxCell id="L2kIxF_f2o8bScoLyBiG-83" value="&lt;b&gt;Posledice: &lt;/b&gt;Kreiran novi Forum sa prvim komentarom." style="text;html=1;align=center;verticalAlign=middle;resizable=0;points=[];autosize=1;strokeColor=none;fillColor=none;" parent="L2kIxF_f2o8bScoLyBiG-79" vertex="1">
          <mxGeometry y="70" width="310" height="30" as="geometry" />
        </mxCell>
        <mxCell id="L2kIxF_f2o8bScoLyBiG-84" value="&lt;b&gt;Osnovni tok:&lt;/b&gt;&lt;div&gt;&lt;b&gt;&amp;nbsp;&lt;/b&gt;&lt;div&gt;1. Prijavljeni korsnik ulazi na stranicu sa forumima&lt;/div&gt;&lt;div&gt;&lt;br&gt;&lt;/div&gt;&lt;div style=&quot;text-align: left;&quot;&gt;2. Prijavljeni korsnik bira opciju za kreiranje novog&lt;/div&gt;&lt;/div&gt;&lt;div style=&quot;text-align: left;&quot;&gt;foruma&lt;/div&gt;&lt;div style=&quot;text-align: left;&quot;&gt;&lt;br&gt;&lt;/div&gt;&lt;div style=&quot;text-align: left;&quot;&gt;3. Prijavljeni korsnik bira lokaciju za novi forum&amp;nbsp;&lt;/div&gt;&lt;div style=&quot;text-align: left;&quot;&gt;&lt;br&gt;&lt;/div&gt;&lt;div style=&quot;text-align: left;&quot;&gt;4. Prijavljeni korisnik ostavlja prvi komentar&lt;/div&gt;&lt;div style=&quot;text-align: left;&quot;&gt;&lt;br&gt;&lt;/div&gt;&lt;div style=&quot;text-align: left;&quot;&gt;5. Forum biva dodat u ekran sa ostalim forumima&lt;/div&gt;&lt;div style=&quot;text-align: left;&quot;&gt;&lt;br&gt;&lt;/div&gt;&lt;div style=&quot;text-align: left;&quot;&gt;&lt;br&gt;&lt;/div&gt;" style="text;html=1;align=center;verticalAlign=middle;resizable=0;points=[];autosize=1;strokeColor=none;fillColor=none;" parent="L2kIxF_f2o8bScoLyBiG-79" vertex="1">
          <mxGeometry x="10" y="120" width="290" height="210" as="geometry" />
        </mxCell>
        <mxCell id="L2kIxF_f2o8bScoLyBiG-85" value="Zatvaranje foruma" style="ellipse;whiteSpace=wrap;html=1;fillColor=#d5e8d4;strokeColor=#82b366;" parent="1" vertex="1">
          <mxGeometry x="20" y="1550" width="140" height="70" as="geometry" />
        </mxCell>
        <mxCell id="L2kIxF_f2o8bScoLyBiG-86" value="" style="swimlane;startSize=0;" parent="1" vertex="1">
          <mxGeometry x="190" y="1560" width="320" height="280" as="geometry" />
        </mxCell>
        <mxCell id="L2kIxF_f2o8bScoLyBiG-87" value="&lt;b&gt;Preduslovi:&lt;/b&gt; Korisnik je prijavljen kao gost&lt;div&gt;&amp;nbsp;i osnivac je datog foruma.&lt;/div&gt;" style="text;html=1;align=left;verticalAlign=middle;resizable=0;points=[];autosize=1;strokeColor=none;fillColor=none;" parent="L2kIxF_f2o8bScoLyBiG-86" vertex="1">
          <mxGeometry x="10" y="10" width="250" height="40" as="geometry" />
        </mxCell>
        <mxCell id="L2kIxF_f2o8bScoLyBiG-88" value="" style="endArrow=none;html=1;rounded=0;exitX=0;exitY=0.25;exitDx=0;exitDy=0;entryX=1;entryY=0.25;entryDx=0;entryDy=0;" parent="L2kIxF_f2o8bScoLyBiG-86" edge="1">
          <mxGeometry width="50" height="50" relative="1" as="geometry">
            <mxPoint y="60" as="sourcePoint" />
            <mxPoint x="310" y="60" as="targetPoint" />
          </mxGeometry>
        </mxCell>
        <mxCell id="L2kIxF_f2o8bScoLyBiG-89" value="" style="endArrow=none;html=1;rounded=0;exitX=0;exitY=0.25;exitDx=0;exitDy=0;entryX=1;entryY=0.25;entryDx=0;entryDy=0;" parent="L2kIxF_f2o8bScoLyBiG-86" edge="1">
          <mxGeometry width="50" height="50" relative="1" as="geometry">
            <mxPoint y="110" as="sourcePoint" />
            <mxPoint x="310" y="110" as="targetPoint" />
          </mxGeometry>
        </mxCell>
        <mxCell id="L2kIxF_f2o8bScoLyBiG-90" value="&lt;b&gt;Posledice: &lt;/b&gt;Arhiviaran forum." style="text;html=1;align=center;verticalAlign=middle;resizable=0;points=[];autosize=1;strokeColor=none;fillColor=none;" parent="L2kIxF_f2o8bScoLyBiG-86" vertex="1">
          <mxGeometry x="10" y="70" width="180" height="30" as="geometry" />
        </mxCell>
        <mxCell id="L2kIxF_f2o8bScoLyBiG-91" value="&lt;b&gt;Osnovni tok:&lt;/b&gt;&lt;div&gt;&lt;b&gt;&amp;nbsp;&lt;/b&gt;&lt;div&gt;1. Prijavljeni korsnik ulazi na stranicu sa forumima&lt;/div&gt;&lt;div&gt;&lt;br&gt;&lt;/div&gt;&lt;div style=&quot;text-align: left;&quot;&gt;2. Prijavljeni korsnik bira svoj forum koji&amp;nbsp;&lt;/div&gt;&lt;div style=&quot;text-align: left;&quot;&gt;zeli da arhivira&lt;/div&gt;&lt;/div&gt;&lt;div style=&quot;text-align: left;&quot;&gt;&lt;br&gt;&lt;/div&gt;&lt;div style=&quot;text-align: left;&quot;&gt;3. Prijavljeni korsnik bira opciju za&amp;nbsp;&lt;/div&gt;&lt;div style=&quot;text-align: left;&quot;&gt;arhiviranje datog foruma&amp;nbsp;&lt;/div&gt;&lt;div style=&quot;text-align: left;&quot;&gt;&lt;br&gt;&lt;/div&gt;&lt;div style=&quot;text-align: left;&quot;&gt;4. Dati forum biva arhiviran&lt;/div&gt;&lt;div style=&quot;text-align: left;&quot;&gt;&lt;br&gt;&lt;/div&gt;&lt;div style=&quot;text-align: left;&quot;&gt;&lt;br&gt;&lt;/div&gt;&lt;div style=&quot;text-align: left;&quot;&gt;&lt;br&gt;&lt;/div&gt;&lt;div style=&quot;text-align: left;&quot;&gt;&lt;br&gt;&lt;/div&gt;" style="text;html=1;align=center;verticalAlign=middle;resizable=0;points=[];autosize=1;strokeColor=none;fillColor=none;" parent="L2kIxF_f2o8bScoLyBiG-86" vertex="1">
          <mxGeometry x="10" y="110" width="290" height="230" as="geometry" />
        </mxCell>
        <mxCell id="L2kIxF_f2o8bScoLyBiG-92" value="Prijavljivanje komentara" style="ellipse;whiteSpace=wrap;html=1;fillColor=#fff2cc;strokeColor=#d6b656;" parent="1" vertex="1">
          <mxGeometry x="850" y="1530" width="140" height="70" as="geometry" />
        </mxCell>
        <mxCell id="L2kIxF_f2o8bScoLyBiG-93" value="" style="swimlane;startSize=0;" parent="1" vertex="1">
          <mxGeometry x="1010" y="1540" width="310" height="280" as="geometry" />
        </mxCell>
        <mxCell id="L2kIxF_f2o8bScoLyBiG-95" value="" style="endArrow=none;html=1;rounded=0;exitX=0;exitY=0.25;exitDx=0;exitDy=0;entryX=1;entryY=0.25;entryDx=0;entryDy=0;" parent="L2kIxF_f2o8bScoLyBiG-93" edge="1">
          <mxGeometry width="50" height="50" relative="1" as="geometry">
            <mxPoint y="60" as="sourcePoint" />
            <mxPoint x="310" y="60" as="targetPoint" />
          </mxGeometry>
        </mxCell>
        <mxCell id="L2kIxF_f2o8bScoLyBiG-96" value="" style="endArrow=none;html=1;rounded=0;exitX=0;exitY=0.25;exitDx=0;exitDy=0;entryX=1;entryY=0.25;entryDx=0;entryDy=0;" parent="L2kIxF_f2o8bScoLyBiG-93" edge="1">
          <mxGeometry width="50" height="50" relative="1" as="geometry">
            <mxPoint y="110" as="sourcePoint" />
            <mxPoint x="310" y="110" as="targetPoint" />
          </mxGeometry>
        </mxCell>
        <mxCell id="L2kIxF_f2o8bScoLyBiG-97" value="&lt;b&gt;Posledice: &lt;/b&gt;Komentar na datom forumu dobija&lt;div&gt;&amp;nbsp;prijavu vise.&lt;/div&gt;" style="text;html=1;align=left;verticalAlign=middle;resizable=0;points=[];autosize=1;strokeColor=none;fillColor=none;" parent="L2kIxF_f2o8bScoLyBiG-93" vertex="1">
          <mxGeometry x="10" y="60" width="270" height="40" as="geometry" />
        </mxCell>
        <mxCell id="L2kIxF_f2o8bScoLyBiG-98" value="&lt;b&gt;Osnovni tok:&lt;/b&gt;&lt;div&gt;&lt;b&gt;&amp;nbsp;&lt;/b&gt;&lt;div&gt;1. Prijavljeni korsnik ulazi na stranicu sa forumima&lt;/div&gt;&lt;div&gt;&lt;br&gt;&lt;/div&gt;&lt;div style=&quot;text-align: left;&quot;&gt;2. Prijavljeni korsnik ulazi na zeljeni forum&lt;/div&gt;&lt;/div&gt;&lt;div style=&quot;text-align: left;&quot;&gt;&lt;br&gt;&lt;/div&gt;&lt;div style=&quot;text-align: left;&quot;&gt;3. Prijavljeni korsnik bira komentar koji smatra&amp;nbsp;&lt;/div&gt;&lt;div style=&quot;text-align: left;&quot;&gt;netacnim i klikce dugme za prijavu tog komentara&lt;/div&gt;&lt;div style=&quot;text-align: left;&quot;&gt;&lt;br&gt;&lt;/div&gt;&lt;div style=&quot;text-align: left;&quot;&gt;4. Broj prijava za dati komentar se povecava za 1&lt;/div&gt;&lt;div style=&quot;text-align: left;&quot;&gt;&lt;br&gt;&lt;/div&gt;&lt;div style=&quot;text-align: left;&quot;&gt;&lt;br&gt;&lt;/div&gt;&lt;div style=&quot;text-align: left;&quot;&gt;&lt;br&gt;&lt;/div&gt;" style="text;html=1;align=center;verticalAlign=middle;resizable=0;points=[];autosize=1;strokeColor=none;fillColor=none;" parent="L2kIxF_f2o8bScoLyBiG-93" vertex="1">
          <mxGeometry x="10" y="110" width="290" height="200" as="geometry" />
        </mxCell>
        <mxCell id="L2kIxF_f2o8bScoLyBiG-94" value="&lt;b&gt;Preduslovi:&lt;/b&gt; Korisnik je prijavljen kao vlasnik&lt;div style=&quot;&quot;&gt;&amp;nbsp;i ima smestaj na lokaciji oko koje je zasnovan&lt;/div&gt;&lt;div style=&quot;&quot;&gt;&amp;nbsp;dati forum.&lt;/div&gt;" style="text;html=1;align=left;verticalAlign=middle;resizable=0;points=[];autosize=1;strokeColor=none;fillColor=none;" parent="L2kIxF_f2o8bScoLyBiG-93" vertex="1">
          <mxGeometry x="10" width="270" height="60" as="geometry" />
        </mxCell>
        <mxCell id="L2kIxF_f2o8bScoLyBiG-101" value="" style="endArrow=none;html=1;rounded=0;entryX=0.25;entryY=0.1;entryDx=0;entryDy=0;entryPerimeter=0;" parent="1" target="L2kIxF_f2o8bScoLyBiG-36" edge="1">
          <mxGeometry width="50" height="50" relative="1" as="geometry">
            <mxPoint x="1300" y="-260" as="sourcePoint" />
            <mxPoint x="670" y="-160" as="targetPoint" />
          </mxGeometry>
        </mxCell>
        <mxCell id="L2kIxF_f2o8bScoLyBiG-102" value="" style="endArrow=none;html=1;rounded=0;exitX=1;exitY=0.5;exitDx=0;exitDy=0;edgeStyle=orthogonalEdgeStyle;" parent="1" source="L2kIxF_f2o8bScoLyBiG-103" edge="1">
          <mxGeometry width="50" height="50" relative="1" as="geometry">
            <mxPoint x="620" y="-110" as="sourcePoint" />
            <mxPoint x="1300" y="-260" as="targetPoint" />
          </mxGeometry>
        </mxCell>
        <mxCell id="L2kIxF_f2o8bScoLyBiG-103" value="Slanje predloga za uklanjanje postojeceg&lt;div&gt;smestaja&lt;/div&gt;" style="ellipse;whiteSpace=wrap;html=1;fillColor=#e1d5e7;strokeColor=#9673a6;" parent="1" vertex="1">
          <mxGeometry x="905" y="-330" width="150" height="90" as="geometry" />
        </mxCell>
        <mxCell id="L2kIxF_f2o8bScoLyBiG-105" value="" style="swimlane;startSize=0;" parent="1" vertex="1">
          <mxGeometry x="200" y="2240" width="312.5" height="350" as="geometry" />
        </mxCell>
        <mxCell id="L2kIxF_f2o8bScoLyBiG-106" value="&lt;b&gt;Preduslovi:&lt;/b&gt; Korisnik je prijavljen kao gost.&amp;nbsp;&lt;div style=&quot;text-align: left;&quot;&gt;&lt;br&gt;&lt;/div&gt;" style="text;html=1;align=center;verticalAlign=middle;resizable=0;points=[];autosize=1;strokeColor=none;fillColor=none;" parent="L2kIxF_f2o8bScoLyBiG-105" vertex="1">
          <mxGeometry x="5" y="13" width="250" height="40" as="geometry" />
        </mxCell>
        <mxCell id="L2kIxF_f2o8bScoLyBiG-107" value="" style="endArrow=none;html=1;rounded=0;exitX=0;exitY=0.25;exitDx=0;exitDy=0;entryX=1;entryY=0.25;entryDx=0;entryDy=0;" parent="L2kIxF_f2o8bScoLyBiG-105" edge="1">
          <mxGeometry width="50" height="50" relative="1" as="geometry">
            <mxPoint y="60" as="sourcePoint" />
            <mxPoint x="310" y="60" as="targetPoint" />
          </mxGeometry>
        </mxCell>
        <mxCell id="L2kIxF_f2o8bScoLyBiG-108" value="" style="endArrow=none;html=1;rounded=0;exitX=0;exitY=0.25;exitDx=0;exitDy=0;entryX=1;entryY=0.25;entryDx=0;entryDy=0;" parent="L2kIxF_f2o8bScoLyBiG-105" edge="1">
          <mxGeometry width="50" height="50" relative="1" as="geometry">
            <mxPoint y="110" as="sourcePoint" />
            <mxPoint x="310" y="110" as="targetPoint" />
          </mxGeometry>
        </mxCell>
        <mxCell id="L2kIxF_f2o8bScoLyBiG-109" value="&lt;b&gt;Posledice: Gost dobija rezultat pretrage - sve&lt;/b&gt;&lt;div&gt;&lt;b&gt;slobodne smestaje za zadati broj ljudi i broj dana&lt;/b&gt;&lt;/div&gt;" style="text;html=1;align=left;verticalAlign=middle;resizable=0;points=[];autosize=1;strokeColor=none;fillColor=none;" parent="L2kIxF_f2o8bScoLyBiG-105" vertex="1">
          <mxGeometry x="12.5" y="65" width="300" height="40" as="geometry" />
        </mxCell>
        <mxCell id="L2kIxF_f2o8bScoLyBiG-110" value="&lt;b&gt;Osnovni tok:&lt;/b&gt;&lt;div&gt;&lt;b&gt;&amp;nbsp;&lt;/b&gt;&lt;div style=&quot;text-align: left;&quot;&gt;1. Korisnik se prijavljuje&lt;/div&gt;&lt;div&gt;&lt;br&gt;&lt;/div&gt;&lt;div style=&quot;text-align: left;&quot;&gt;2. Korisnik unosi broj ljudi i broj dana&amp;nbsp;&lt;/div&gt;&lt;/div&gt;&lt;div style=&quot;text-align: left;&quot;&gt;&lt;br&gt;&lt;/div&gt;&lt;div style=&quot;text-align: left;&quot;&gt;3. [Alternativni tok A]&lt;/div&gt;&lt;div style=&quot;text-align: left;&quot;&gt;&lt;br&gt;&lt;/div&gt;&lt;div style=&quot;text-align: left;&quot;&gt;4. Korisnik dobija slobodne termine&lt;/div&gt;&lt;div style=&quot;text-align: left;&quot;&gt;&amp;nbsp;&lt;/div&gt;&lt;div style=&quot;text-align: left;&quot;&gt;&lt;br&gt;&lt;/div&gt;&lt;div style=&quot;text-align: left;&quot;&gt;&lt;br&gt;&lt;/div&gt;&lt;div style=&quot;text-align: left;&quot;&gt;&lt;br&gt;&lt;/div&gt;&lt;div style=&quot;text-align: left;&quot;&gt;&lt;br&gt;&lt;/div&gt;&lt;div style=&quot;text-align: left;&quot;&gt;&lt;br&gt;&lt;/div&gt;&lt;div style=&quot;text-align: left;&quot;&gt;&lt;br&gt;&lt;/div&gt;&lt;div style=&quot;text-align: left;&quot;&gt;&lt;br&gt;&lt;/div&gt;&lt;div style=&quot;text-align: left;&quot;&gt;&lt;br&gt;&lt;/div&gt;" style="text;html=1;align=center;verticalAlign=middle;resizable=0;points=[];autosize=1;strokeColor=none;fillColor=none;" parent="L2kIxF_f2o8bScoLyBiG-105" vertex="1">
          <mxGeometry x="20" y="140" width="220" height="270" as="geometry" />
        </mxCell>
        <mxCell id="L2kIxF_f2o8bScoLyBiG-114" value="Slanje predloga za uklanjanje postojeceg&lt;div&gt;smestaja&lt;/div&gt;" style="ellipse;whiteSpace=wrap;html=1;fillColor=#e1d5e7;strokeColor=#9673a6;" parent="1" vertex="1">
          <mxGeometry x="20" y="1900" width="150" height="90" as="geometry" />
        </mxCell>
        <mxCell id="L2kIxF_f2o8bScoLyBiG-115" value="Slanje predloga za registraciju novog smestaja&amp;nbsp;" style="ellipse;whiteSpace=wrap;html=1;fillColor=#e1d5e7;strokeColor=#9673a6;" parent="1" vertex="1">
          <mxGeometry x="850" y="1880" width="150" height="90" as="geometry" />
        </mxCell>
        <mxCell id="L2kIxF_f2o8bScoLyBiG-116" value="" style="swimlane;startSize=0;" parent="1" vertex="1">
          <mxGeometry x="1010" y="1920" width="310" height="220" as="geometry" />
        </mxCell>
        <mxCell id="L2kIxF_f2o8bScoLyBiG-117" value="&lt;b&gt;Preduslovi:&lt;/b&gt; Korisnik je prijavljen kao vlasnik&amp;nbsp;&lt;span style=&quot;text-align: left; background-color: initial;&quot;&gt;.&lt;/span&gt;" style="text;html=1;align=center;verticalAlign=middle;resizable=0;points=[];autosize=1;strokeColor=none;fillColor=none;" parent="L2kIxF_f2o8bScoLyBiG-116" vertex="1">
          <mxGeometry x="-5" y="18" width="270" height="30" as="geometry" />
        </mxCell>
        <mxCell id="L2kIxF_f2o8bScoLyBiG-118" value="" style="endArrow=none;html=1;rounded=0;exitX=0;exitY=0.25;exitDx=0;exitDy=0;entryX=1;entryY=0.25;entryDx=0;entryDy=0;" parent="L2kIxF_f2o8bScoLyBiG-116" edge="1">
          <mxGeometry width="50" height="50" relative="1" as="geometry">
            <mxPoint y="60" as="sourcePoint" />
            <mxPoint x="310" y="60" as="targetPoint" />
          </mxGeometry>
        </mxCell>
        <mxCell id="L2kIxF_f2o8bScoLyBiG-119" value="" style="endArrow=none;html=1;rounded=0;exitX=0;exitY=0.25;exitDx=0;exitDy=0;entryX=1;entryY=0.25;entryDx=0;entryDy=0;" parent="L2kIxF_f2o8bScoLyBiG-116" edge="1">
          <mxGeometry width="50" height="50" relative="1" as="geometry">
            <mxPoint y="110" as="sourcePoint" />
            <mxPoint x="310" y="110" as="targetPoint" />
          </mxGeometry>
        </mxCell>
        <mxCell id="L2kIxF_f2o8bScoLyBiG-120" value="&lt;b&gt;Posledice: &lt;/b&gt;Obavestenje o atraktivnoj lokaciji&amp;nbsp;&lt;div&gt;pogodnoj za otvaranje novog smestaja&lt;br&gt;&lt;/div&gt;" style="text;html=1;align=left;verticalAlign=middle;resizable=0;points=[];autosize=1;strokeColor=none;fillColor=none;" parent="L2kIxF_f2o8bScoLyBiG-116" vertex="1">
          <mxGeometry x="5" y="65" width="260" height="40" as="geometry" />
        </mxCell>
        <mxCell id="L2kIxF_f2o8bScoLyBiG-121" value="&lt;b&gt;Osnovni tok:&lt;/b&gt;&lt;div&gt;&lt;b&gt;&amp;nbsp;&lt;/b&gt;&lt;div style=&quot;text-align: left;&quot;&gt;1. Korisnik se prijavljuje&lt;/div&gt;&lt;div&gt;&lt;br&gt;&lt;/div&gt;&lt;div style=&quot;text-align: left;&quot;&gt;2. Korisniku stize obavestenje o predlozima za&lt;/div&gt;&lt;div style=&quot;text-align: left;&quot;&gt;&amp;nbsp;dodavanje aparmana ukoliko oni postoje&lt;/div&gt;&lt;/div&gt;&lt;div style=&quot;text-align: left;&quot;&gt;&lt;br&gt;&lt;/div&gt;&lt;div style=&quot;text-align: left;&quot;&gt;&lt;br&gt;&lt;/div&gt;&lt;div style=&quot;text-align: left;&quot;&gt;&lt;br&gt;&lt;/div&gt;&lt;div style=&quot;text-align: left;&quot;&gt;&lt;br&gt;&lt;/div&gt;&lt;div style=&quot;text-align: left;&quot;&gt;&lt;br&gt;&lt;/div&gt;&lt;div style=&quot;text-align: left;&quot;&gt;&lt;br&gt;&lt;/div&gt;&lt;div style=&quot;text-align: left;&quot;&gt;&lt;br&gt;&lt;/div&gt;&lt;div style=&quot;text-align: left;&quot;&gt;&lt;br&gt;&lt;/div&gt;" style="text;html=1;align=center;verticalAlign=middle;resizable=0;points=[];autosize=1;strokeColor=none;fillColor=none;" parent="L2kIxF_f2o8bScoLyBiG-116" vertex="1">
          <mxGeometry x="20" y="110" width="270" height="210" as="geometry" />
        </mxCell>
        <mxCell id="EuLUMkL3nQ86OO4vPgbm-1" value="Pretraga smestaja" style="ellipse;whiteSpace=wrap;html=1;fillColor=#d5e8d4;strokeColor=#82b366;" parent="1" vertex="1">
          <mxGeometry x="40" y="2230" width="140" height="70" as="geometry" />
        </mxCell>
        <mxCell id="EuLUMkL3nQ86OO4vPgbm-2" value="" style="swimlane;startSize=0;" parent="1" vertex="1">
          <mxGeometry x="200" y="1920" width="310" height="220" as="geometry" />
        </mxCell>
        <mxCell id="EuLUMkL3nQ86OO4vPgbm-3" value="&lt;b&gt;Preduslovi:&lt;/b&gt; Korisnik je prijavljen kao vlasnik&amp;nbsp;&lt;div style=&quot;text-align: left;&quot;&gt;i poseduje 1 ili vise apartmana.&lt;/div&gt;" style="text;html=1;align=center;verticalAlign=middle;resizable=0;points=[];autosize=1;strokeColor=none;fillColor=none;" parent="EuLUMkL3nQ86OO4vPgbm-2" vertex="1">
          <mxGeometry y="13" width="260" height="40" as="geometry" />
        </mxCell>
        <mxCell id="EuLUMkL3nQ86OO4vPgbm-4" value="" style="endArrow=none;html=1;rounded=0;exitX=0;exitY=0.25;exitDx=0;exitDy=0;entryX=1;entryY=0.25;entryDx=0;entryDy=0;" parent="EuLUMkL3nQ86OO4vPgbm-2" edge="1">
          <mxGeometry width="50" height="50" relative="1" as="geometry">
            <mxPoint y="60" as="sourcePoint" />
            <mxPoint x="310" y="60" as="targetPoint" />
          </mxGeometry>
        </mxCell>
        <mxCell id="EuLUMkL3nQ86OO4vPgbm-5" value="" style="endArrow=none;html=1;rounded=0;exitX=0;exitY=0.25;exitDx=0;exitDy=0;entryX=1;entryY=0.25;entryDx=0;entryDy=0;" parent="EuLUMkL3nQ86OO4vPgbm-2" edge="1">
          <mxGeometry width="50" height="50" relative="1" as="geometry">
            <mxPoint y="110" as="sourcePoint" />
            <mxPoint x="310" y="110" as="targetPoint" />
          </mxGeometry>
        </mxCell>
        <mxCell id="EuLUMkL3nQ86OO4vPgbm-6" value="&lt;b&gt;Posledice: &lt;/b&gt;Obavestenje o apartmanu&amp;nbsp;&lt;div&gt;predolzenom za brisanje&lt;/div&gt;" style="text;html=1;align=left;verticalAlign=middle;resizable=0;points=[];autosize=1;strokeColor=none;fillColor=none;" parent="EuLUMkL3nQ86OO4vPgbm-2" vertex="1">
          <mxGeometry x="12.5" y="65" width="230" height="40" as="geometry" />
        </mxCell>
        <mxCell id="EuLUMkL3nQ86OO4vPgbm-7" value="&lt;b&gt;Osnovni tok:&lt;/b&gt;&lt;div&gt;&lt;b&gt;&amp;nbsp;&lt;/b&gt;&lt;div style=&quot;text-align: left;&quot;&gt;1. Korisnik se prijavljuje&lt;/div&gt;&lt;div&gt;&lt;br&gt;&lt;/div&gt;&lt;div style=&quot;text-align: left;&quot;&gt;2. Korisniku stize obavestenje o predlozima za&lt;/div&gt;&lt;div style=&quot;text-align: left;&quot;&gt;&amp;nbsp;brisanje aparmana ukoliko oni postoje&lt;/div&gt;&lt;/div&gt;&lt;div style=&quot;text-align: left;&quot;&gt;&lt;br&gt;&lt;/div&gt;&lt;div style=&quot;text-align: left;&quot;&gt;&lt;br&gt;&lt;/div&gt;&lt;div style=&quot;text-align: left;&quot;&gt;&lt;br&gt;&lt;/div&gt;&lt;div style=&quot;text-align: left;&quot;&gt;&lt;br&gt;&lt;/div&gt;&lt;div style=&quot;text-align: left;&quot;&gt;&lt;br&gt;&lt;/div&gt;&lt;div style=&quot;text-align: left;&quot;&gt;&lt;br&gt;&lt;/div&gt;&lt;div style=&quot;text-align: left;&quot;&gt;&lt;br&gt;&lt;/div&gt;&lt;div style=&quot;text-align: left;&quot;&gt;&lt;br&gt;&lt;/div&gt;" style="text;html=1;align=center;verticalAlign=middle;resizable=0;points=[];autosize=1;strokeColor=none;fillColor=none;" parent="EuLUMkL3nQ86OO4vPgbm-2" vertex="1">
          <mxGeometry x="20" y="110" width="270" height="210" as="geometry" />
        </mxCell>
        <mxCell id="EuLUMkL3nQ86OO4vPgbm-8" value="" style="rounded=0;whiteSpace=wrap;html=1;" parent="1" vertex="1">
          <mxGeometry x="520" y="2240" width="270" height="130" as="geometry" />
        </mxCell>
        <mxCell id="EuLUMkL3nQ86OO4vPgbm-9" value="&lt;b&gt;Alternativni tok A:&amp;nbsp;&lt;/b&gt;&lt;div&gt;&lt;br&gt;&lt;/div&gt;&lt;div&gt;1. Gost unosi i opseg datuma kao kriterijum pretrage&lt;/div&gt;&lt;div&gt;&lt;br&gt;&lt;/div&gt;" style="text;html=1;align=left;verticalAlign=middle;whiteSpace=wrap;rounded=0;" parent="1" vertex="1">
          <mxGeometry x="530" y="2240" width="250" height="120" as="geometry" />
        </mxCell>
      </root>
    </mxGraphModel>
  </diagram>
</mxfile>
